<?xml version="1.0" encoding="UTF-8" standalone="no"?>
<svg
   xmlns:dc="http://purl.org/dc/elements/1.1/"
   xmlns:cc="http://creativecommons.org/ns#"
   xmlns:rdf="http://www.w3.org/1999/02/22-rdf-syntax-ns#"
   xmlns:svg="http://www.w3.org/2000/svg"
   xmlns="http://www.w3.org/2000/svg"
   xmlns:sodipodi="http://sodipodi.sourceforge.net/DTD/sodipodi-0.dtd"
   xmlns:inkscape="http://www.inkscape.org/namespaces/inkscape"
   enable-background="new 0 0 64 64"
   height="64px"
   version="1.1"
   viewBox="0 0 64 64"
   width="64px"
   xml:space="preserve"
   id="svg20"
   sodipodi:docname="if_arrow-down.svg"
   inkscape:version="0.92.2 5c3e80d, 2017-08-06"><metadata
     id="metadata26"><rdf:RDF><cc:Work
         rdf:about=""><dc:format>image/svg+xml</dc:format><dc:type
           rdf:resource="http://purl.org/dc/dcmitype/StillImage" /><dc:title></dc:title></cc:Work></rdf:RDF></metadata><defs
     id="defs24" /><sodipodi:namedview
     pagecolor="#ffffff"
     bordercolor="#666666"
     borderopacity="1"
     objecttolerance="10"
     gridtolerance="10"
     guidetolerance="10"
     inkscape:pageopacity="0"
     inkscape:pageshadow="2"
     inkscape:window-width="1844"
     inkscape:window-height="1056"
     id="namedview22"
     showgrid="false"
     inkscape:zoom="3.6875"
     inkscape:cx="-7.8644068"
     inkscape:cy="32"
     inkscape:window-x="76"
     inkscape:window-y="0"
     inkscape:window-maximized="1"
     inkscape:current-layer="svg20" /><g
     id="Layer_1"
     transform="matrix(1,0,0,-1,0,64)"><g
       id="g4"><circle
         cx="32"
         cy="32"
         r="32"
         id="circle2"
         style="fill:#77b3d4" /></g><g
       id="g8"
       style="opacity:0.2"><path
         d="M 49.529,33.855 35.259,15.71 c -1.793,-2.28 -4.726,-2.28 -6.519,0 L 14.471,33.855 C 12.679,36.135 13.439,38 16.161,38 H 24 v 12 c 0,2.209 1.791,4 4,4 h 8 c 2.209,0 4,-1.791 4,-4 V 38 h 7.839 c 2.722,0 3.482,-1.865 1.69,-4.145 z"
         id="path6"
         inkscape:connector-curvature="0"
         style="fill:#231f20" /></g><g
       id="g12"><path
         d="m 40,48 c 0,2.209 -1.791,4 -4,4 h -8 c -2.209,0 -4,-1.791 -4,-4 V 24 c 0,-2.209 1.791,-4 4,-4 h 8 c 2.209,0 4,1.791 4,4 z"
         id="path10"
         inkscape:connector-curvature="0"
         style="fill:#ffffff" /></g><g
       id="g16"><path
         d="m 16.161,36 c -2.722,0 -3.483,-1.865 -1.69,-4.145 L 28.741,13.71 c 1.793,-2.28 4.726,-2.28 6.519,0 l 14.269,18.146 c 1.793,2.28 1.032,4.145 -1.69,4.145 H 16.161 Z"
         id="path14"
         inkscape:connector-curvature="0"
         style="fill:#ffffff" /></g></g><g
     id="Layer_2" /></svg>